<svg width="1200" height="120" viewBox="0 0 1200 120" xmlns="http://www.w3.org/2000/svg">
  <defs>
    <linearGradient id="bgGradF" x1="0%" y1="0%" x2="100%" y2="100%">
      <stop offset="0%" stop-color="#1e1b4b"/>
      <stop offset="100%" stop-color="#0d1117"/>
    </linearGradient>
    <linearGradient id="waveGradF" x1="0%" y1="0%" x2="100%" y2="0%">
      <stop offset="0%" stop-color="#4338CA"/>
      <stop offset="50%" stop-color="#8B5CF6"/>
      <stop offset="100%" stop-color="#6D28D9"/>
    </linearGradient>
  </defs>

  <rect width="1200" height="120" fill="url(#bgGradF)"/>

  <path d="M0,20 C200,55 400,-15 600,20 C800,55 1000,-15 1200,20 L1200,0 L0,0 Z" fill="url(#waveGradF)" opacity="0.35"/>
  <path d="M0,35 C200,65 400,5 600,35 C800,65 1000,5 1200,35 L1200,0 L0,0 Z" fill="url(#waveGradF)" opacity="0.6"/>
  <path d="M0,50 C200,75 400,25 600,50 C800,75 1000,25 1200,50 L1200,0 L0,0 Z" fill="url(#waveGradF)"/>
</svg>
